<svg xmlns="http://www.w3.org/2000/svg" xmlns:xlink="http://www.w3.org/1999/xlink" width="994" height="860" viewBox="0 0 994 860">
    <defs>
        <path id="dq8b91zmua" d="M23.498 6.11v1.022c0 2.539 2.05 4.597 4.578 4.597h34.08c2.529 0 4.578-2.058 4.578-4.597V6.11c0-.564.456-1.022 1.018-1.022h8.647c4.214 0 7.63 3.43 7.63 7.663v154.28c0 4.231-3.416 7.662-7.63 7.662H13.833c-4.213 0-7.63-3.43-7.63-7.663V12.751c0-4.232 3.417-7.663 7.63-7.663h8.648c.562 0 1.017.458 1.017 1.022z"/>
        <path id="yca8zqawnb" d="M0 0L450 0 450 281 0 281z"/>
    </defs>
    <g fill="none" fill-rule="evenodd">
        <g>
            <g>
                <g>
                    <g transform="translate(-719 -62) translate(1) translate(718 62) translate(22)">
                        <path fill="#C1C1C1" fill-rule="nonzero" d="M500.009 404.283l4.991 5.613-22.682 11.693c-15.055 7.761-34.751 7.839-49.898.233l-.458-.233c-12.07-6.222-27.862-6.284-40.006-.186l-.367.186c-15.054 7.761-34.751 7.839-49.898.233l-.458-.233c-12.07-6.222-27.862-6.284-40.006-.186l-.367.186c-15.054 7.761-34.75 7.839-49.898.233l-.458-.233c-12.07-6.222-27.861-6.284-40.006-.186l-.367.186c-15.054 7.761-34.75 7.839-49.898.233l-.458-.233c-12.07-6.222-27.861-6.284-40.006-.186l-.367.186c-15.054 7.761-34.75 7.839-49.898.233l-.457-.233c-12.07-6.222-27.862-6.284-40.006-.186l-.367.186L5.99 433.283 1 427.669l22.682-11.693c15.055-7.761 34.751-7.839 49.898-.233l.458.233c12.07 6.222 27.862 6.285 40.006.187l.367-.187c15.054-7.761 34.751-7.839 49.898-.233l.458.233c12.07 6.222 27.862 6.285 40.006.187l.367-.187c15.054-7.761 34.75-7.839 49.898-.233l.458.233c12.07 6.222 27.861 6.285 40.006.187l.367-.187c15.054-7.761 34.75-7.839 49.898-.233l.458.233c12.07 6.222 27.861 6.285 40.006.187l.367-.187c15.054-7.761 34.75-7.839 49.898-.233l.457.233c12.07 6.222 27.862 6.285 40.006.187l.367-.187 22.683-11.693zm-.008-24l4.999 5.612-22.682 11.694c-15.054 7.761-34.758 7.839-49.905.232l-.457-.232c-12.066-6.221-27.858-6.283-39.999-.187l-.366.187c-15.054 7.761-34.758 7.839-49.905.232l-.458-.232c-12.066-6.221-27.858-6.283-39.998-.187l-.367.187c-15.054 7.761-34.758 7.839-49.905.232l-.457-.232c-12.066-6.221-27.858-6.283-39.999-.187l-.366.187c-15.054 7.761-34.758 7.839-49.905.232l-.458-.232c-12.066-6.221-27.858-6.283-39.998-.187l-.367.187c-15.054 7.761-34.758 7.839-49.905.232l-.457-.232c-12.066-6.221-27.858-6.283-39.998-.187l-.367.187-22.682 11.694L1 403.67l22.682-11.694c15.054-7.762 34.758-7.84 49.905-.233l.457.233c12.066 6.22 27.858 6.283 39.999.186l.366-.186c15.054-7.762 34.758-7.84 49.905-.233l.458.233c12.066 6.22 27.858 6.283 39.998.186l.367-.186c15.054-7.762 34.758-7.84 49.905-.233l.457.233c12.066 6.22 27.858 6.283 39.999.186l.366-.186c15.054-7.762 34.758-7.84 49.905-.233l.458.233c12.066 6.22 27.858 6.283 39.998.186l.367-.186c15.054-7.762 34.758-7.84 49.905-.233l.457.233c12.066 6.22 27.858 6.283 39.998.186l.367-.186 22.682-11.694zm0-24l4.999 5.612-22.682 11.694c-15.054 7.761-34.758 7.839-49.905.232l-.457-.232c-12.066-6.221-27.858-6.283-39.999-.187l-.366.187c-15.054 7.761-34.758 7.839-49.905.232l-.458-.232c-12.066-6.221-27.858-6.283-39.998-.187l-.367.187c-15.054 7.761-34.758 7.839-49.905.232l-.457-.232c-12.066-6.221-27.858-6.283-39.999-.187l-.366.187c-15.054 7.761-34.758 7.839-49.905.232l-.458-.232c-12.066-6.221-27.858-6.283-39.998-.187l-.367.187c-15.054 7.761-34.758 7.839-49.905.232l-.457-.232c-12.066-6.221-27.858-6.283-39.998-.187l-.367.187-22.682 11.694L1 379.67l22.682-11.694c15.054-7.762 34.758-7.84 49.905-.233l.457.233c12.066 6.22 27.858 6.283 39.999.186l.366-.186c15.054-7.762 34.758-7.84 49.905-.233l.458.233c12.066 6.22 27.858 6.283 39.998.186l.367-.186c15.054-7.762 34.758-7.84 49.905-.233l.457.233c12.066 6.22 27.858 6.283 39.999.186l.366-.186c15.054-7.762 34.758-7.84 49.905-.233l.458.233c12.066 6.22 27.858 6.283 39.998.186l.367-.186c15.054-7.762 34.758-7.84 49.905-.233l.457.233c12.066 6.22 27.858 6.283 39.998.186l.367-.186 22.682-11.694zm-.992-24l4.991 5.613-22.682 11.693c-15.055 7.761-34.751 7.839-49.898.233l-.458-.233c-12.07-6.222-27.862-6.284-40.006-.186l-.367.186c-15.054 7.761-34.751 7.839-49.898.233l-.458-.233c-12.07-6.222-27.862-6.284-40.006-.186l-.367.186c-15.054 7.761-34.75 7.839-49.898.233l-.458-.233c-12.07-6.222-27.861-6.284-40.006-.186l-.367.186c-15.054 7.761-34.75 7.839-49.898.233l-.458-.233c-12.07-6.222-27.861-6.284-40.006-.186l-.367.186c-15.054 7.761-34.75 7.839-49.898.233l-.457-.233c-12.07-6.222-27.862-6.284-40.006-.186l-.367.186L4.99 361.283 0 355.669l22.682-11.693c15.055-7.761 34.751-7.839 49.898-.233l.458.233c12.07 6.222 27.862 6.285 40.006.187l.367-.187c15.054-7.761 34.751-7.839 49.898-.233l.458.233c12.07 6.222 27.862 6.285 40.006.187l.367-.187c15.054-7.761 34.75-7.839 49.898-.233l.458.233c12.07 6.222 27.861 6.285 40.006.187l.367-.187c15.054-7.761 34.75-7.839 49.898-.233l.458.233c12.07 6.222 27.861 6.285 40.006.187l.367-.187c15.054-7.761 34.75-7.839 49.898-.233l.457.233c12.07 6.222 27.862 6.285 40.006.187l.367-.187 22.683-11.693zm.049-23l4.942 5.503-22.684 11.249c-15.079 7.476-34.684 7.55-49.853.224l-.458-.224c-12.116-6.008-27.87-6.068-40.059-.18l-.368.18c-15.079 7.476-34.684 7.55-49.853.224l-.458-.224c-12.116-6.008-27.87-6.068-40.059-.18l-.368.18c-15.078 7.476-34.684 7.55-49.853.224l-.458-.224c-12.116-6.008-27.87-6.068-40.059-.18l-.368.18c-15.078 7.476-34.684 7.55-49.853.224l-.458-.224c-12.116-6.008-27.87-6.068-40.058-.18l-.369.18c-15.078 7.476-34.683 7.55-49.852.224l-.459-.224c-12.116-6.008-27.87-6.068-40.058-.18l-.369.18-22.684 11.248L0 331.779l22.684-11.248c15.079-7.477 34.684-7.552 49.853-.225l.458.225c12.116 6.008 27.87 6.068 40.059.18l.368-.18c15.079-7.477 34.684-7.552 49.853-.225l.458.225c12.116 6.008 27.87 6.068 40.059.18l.368-.18c15.078-7.477 34.684-7.552 49.853-.225l.458.225c12.116 6.008 27.87 6.068 40.059.18l.368-.18c15.078-7.477 34.684-7.552 49.853-.225l.458.225c12.116 6.008 27.87 6.068 40.058.18l.369-.18c15.078-7.477 34.683-7.552 49.852-.225l.459.225c12.116 6.008 27.87 6.068 40.058.18l.369-.18 22.684-11.248zm-1.005-24l4.947 5.501-22.639 11.25c-15.048 7.477-34.628 7.551-49.767.224l-.457-.225c-12.084-6.004-27.807-6.064-39.964-.18l-.367.18c-15.048 7.478-34.628 7.552-49.767.225l-.457-.225c-12.084-6.004-27.807-6.064-39.964-.18l-.367.18c-15.048 7.478-34.629 7.552-49.767.225l-.457-.225c-12.084-6.004-27.807-6.064-39.964-.18l-.367.18c-15.048 7.478-34.629 7.552-49.767.225l-.458-.225c-12.083-6.004-27.807-6.064-39.963-.18l-.367.18c-15.048 7.478-34.629 7.552-49.767.225l-.458-.225c-12.083-6.004-27.807-6.064-39.963-.18l-.367.18-22.639 11.25L0 307.78l22.639-11.249c15.048-7.477 34.628-7.552 49.767-.224l.457.224c12.084 6.004 27.807 6.064 39.964.18l.367-.18c15.048-7.477 34.628-7.552 49.767-.224l.457.224c12.084 6.004 27.807 6.064 39.964.18l.367-.18c15.048-7.477 34.629-7.552 49.767-.224l.457.224c12.084 6.004 27.807 6.064 39.964.18l.367-.18c15.048-7.477 34.629-7.552 49.767-.224l.458.224c12.083 6.004 27.807 6.064 39.963.18l.367-.18c15.048-7.477 34.629-7.552 49.767-.224l.458.224c12.083 6.004 27.807 6.064 39.963.18l.367-.18 22.639-11.25z" opacity=".545"/>
                        <g>
                            <path fill="#BCBCBC" fill-rule="nonzero" stroke="#979797" stroke-width="2" d="M108.256 20c7.36 0 13.37 5.83 13.727 13.155l.017.691v8.067c0 8.788-5.485 16.591-13.637 19.543l-.797.27-40.883 12.945c-2.684.85-4.564 3.253-4.789 6.042l-.022.563V110H55V81.276c0-5.806 3.59-10.967 8.945-12.975l.678-.235 40.882-12.944c5.498-1.741 9.309-6.74 9.605-12.487l.018-.722v-8.067c0-3.65-2.803-6.64-6.359-6.904l-.513-.019h-49.82V20h49.82z" transform="rotate(-90 435.641 -59.859)"/>
                            <path fill="#BBB" fill-rule="nonzero" stroke="#727272" stroke-width="2" d="M69.846 104.5H42.154c-4.78 0-8.654 3.694-8.654 8.25v82.5c0 4.556 3.874 8.25 8.654 8.25h27.692c4.78 0 8.654-3.694 8.654-8.25v-82.5c0-4.556-3.874-8.25-8.654-8.25z" transform="rotate(-90 435.641 -59.859)"/>
                            <path fill="#E2E2E2" stroke="#727272" stroke-width="2" d="M33.5 117.5H78.5V192.5H33.5z" transform="rotate(-90 435.641 -59.859)"/>
                            <path fill="#FFF" fill-opacity=".209" fill-rule="nonzero" d="M70.73 106.5H52.27c-3.187 0-5.77 3.544-5.77 7.917v79.166c0 4.373 2.583 7.917 5.77 7.917h18.46c3.187 0 5.77-3.544 5.77-7.917v-79.166c0-4.373-2.583-7.917-5.77-7.917z" transform="rotate(-90 435.641 -59.859)"/>
                            <path fill="#E2E2E2" stroke="#979797" stroke-width="1.435" d="M3.92.5h99.16c1.89 0 3.42 1.515 3.42 3.385v37.23c0 1.87-1.53 3.385-3.42 3.385H3.92C2.03 44.5.5 42.985.5 41.115V3.885C.5 2.015 2.03.5 3.92.5z" transform="rotate(-90 435.641 -59.859)"/>
                            <path fill="#C2C2C2" stroke="#979797" d="M3.5.5h99v17.059l-1.586-1.366c-3.24-2.791-8.128-2.428-10.919.812-.577.67-1.036 1.435-1.355 2.26l-.38.982c-1.255 3.244-4.902 4.856-8.147 3.601-.864-.334-1.644-.855-2.283-1.526l-1.948-2.04c-2.854-2.991-7.417-3.564-10.922-1.371-3.722 2.328-8.407 2.48-12.271.398l-4.004-2.158c-4.96-2.671-10.979-2.443-15.72.598l-.595.381c-4.137 2.653-9.564 2.06-13.03-1.424-3.44-3.457-8.86-3.959-12.874-1.191L3.5 17.559h0V.5z" transform="rotate(-90 435.641 -59.859)"/>
                            <path fill="#000" d="M1.435 0h103.13c.792 0 1.435.643 1.435 1.435V3H0V1.435C0 .643.643 0 1.435 0z" opacity=".1" transform="rotate(-90 435.641 -59.859)"/>
                        </g>
                        <g transform="translate(45 227.283)">
                            <g transform="translate(685.495 196.746)">
                                <path fill="#EDEFE3" fill-rule="nonzero" stroke="#979797" stroke-width="2" d="M93.848 148.942s-1.728-48.489-26.31-87.18C42.959 23.068 7.272 5.201 7.272 5.201S-.757 28.832.058 38.423l.766 9.581 8.15 4.618-6.483 3.41s4.366 24.352 8.44 36.08c4.076 11.729 6.557 13.703 6.557 13.703l14.109 1.468-10.18 5.395c.744 7.511 2.719 14.886 5.862 21.892 4.865 10.185 20.677 31.884 20.677 31.884l45.867-17.469.025-.043z"/>
                                <path fill="#E9E7D4" fill-rule="nonzero" stroke="#858585" stroke-width="2" d="M70.482 152.286s-11.25-49.739-1-95.7C79.734 10.627 95.297 0 95.297 0s18.804 25.363 22.358 74.93c3.554 49.567-12.155 83.721-12.155 83.721l-35.018-6.365z"/>
                                <path fill="#D9DDD0" fill-rule="nonzero" stroke="#858585" stroke-width="2" d="M158.15 14.749c5.918 10.995 9.51 22.852 10.602 34.987 1.408 18.295.24 18.37.24 18.37l-7.424 1.986 6.221 4.888s-4.115 31.874-7.857 43.019c-11.384 33.999-30.42 38.918-30.42 38.918l-32.189-6.683s4.2-50.764 21.046-85.156c16.847-34.392 39.782-50.34 39.782-50.34"/>
                                <path fill="#BABABA" fill-rule="nonzero" stroke="#979797" d="M155.544 34.098l-.07 1.316-.067 1.128-.11 1.676-.064.909-.114 1.52-.124 1.562c-.26 3.163-.585 6.568-.983 10.165-1.518 13.704-3.773 27.408-6.912 40.201-1.675 6.828-3.565 13.22-5.68 19.098-1.065 2.955-2.16 5.832-3.286 8.632-4.923 12.245-10.198 22.542-15.475 30.958l-.646 1.021-.636.985c-1.259 1.934-2.448 3.646-3.55 5.14l-.274.37c-.473.633-.9 1.185-1.276 1.656l-.264.328-.408.489-.64-.427.328-.392.169-.207c.357-.443.765-.966 1.22-1.57l.198-.263c1.44-1.93 3.036-4.247 4.751-6.957l.323-.513c5.256-8.382 10.513-18.644 15.42-30.852 1.123-2.793 2.217-5.662 3.278-8.61 2.108-5.855 3.991-12.226 5.661-19.034 3.132-12.764 5.383-26.442 6.898-40.121l.193-1.78.18-1.745c.292-2.881.535-5.618.733-8.181l.113-1.518c.09-1.24.163-2.357.22-3.34l.09-1.67.804.026zM16.327 31.21c15.41 22.034 27.628 45.663 36.375 70.341l.967 2.755 1.048 3.025c5.485 15.905 9.22 28.236 11.515 37.438l.325 1.323.22.918c.603 2.55 1.04 4.665 1.337 6.382l.048.285c.111.66.193 1.216.25 1.676l.05.421.023.25h0l.008.105-.804.034-.007-.094-.033-.337h0l-.013-.117c-.057-.482-.144-1.091-.27-1.836l-.152-.868-.121-.652c-.34-1.784-.81-3.93-1.432-6.469l-.32-1.291-.338-1.326c-2.393-9.274-6.155-21.512-11.567-37.119l-1.06-3.04c-8.611-24.658-20.69-48.279-35.956-70.317l-.779-1.119.686-.368zm75.271 20.038l.799.086-.215 1.631-.176 1.426h0l-.239 2.043-.145 1.3c-.265 2.422-.527 5.053-.776 7.866-1.548 17.504-2.077 35.56-.979 52.418l.052.774 1.4 19.951.562 8.418h0l.352 5.674.104 1.88h0l.063 1.442h-.805l-.031-.806-.15-2.733-.442-7.03-.622-9.23-.242-3.492-.938-13.259c-.037-.514-.072-1.03-.106-1.549-1.1-16.893-.571-34.98.98-52.512l.207-2.265.156-1.622c.183-1.866.371-3.634.56-5.295l.145-1.26c.08-.676.156-1.303.228-1.878l.258-1.978z"/>
                                <path fill="#E0E4E6" fill-rule="nonzero" stroke="#979797" stroke-linejoin="round" stroke-width="2" d="M130.294 259.115H45.66c-5.238 0-9.75-3.694-10.784-8.83l-20.37-101.17h145l-18.389 100.97c-.952 5.23-5.507 9.03-10.822 9.03z"/>
                                <rect width="156" height="18" x="9.505" y="149.254" fill="#E0E4E6" stroke="#979797" stroke-width="2" rx="3"/>
                            </g>
                            <g>
                                <g fill-rule="nonzero">
                                    <path fill="#1E1E1E" d="M29.485 53.509c-.88-7.744-6.999-13.195-13.664-12.17-6.677 1.018-11.378 8.125-10.497 15.86.88 7.745 6.995 13.196 13.679 12.173 6.658-1.018 11.357-8.12 10.482-15.863z" transform="translate(.221 94.226) rotate(-15 417.17 -70.176)"/>
                                    <path fill="#AEAEAE" d="M181.09 46.697l14.635 118.014c.88 7.178-3.876 13.77-10.646 14.72L33.245 200.662c-6.752.944-12.965-4.106-13.853-11.29L4.757 71.363 181.09 46.697z" transform="translate(.221 94.226) rotate(-15 417.17 -70.176)"/>
                                    <g>
                                        <path fill="#AEAEAE" stroke="#979797" stroke-width="2" d="M177.082 14.044L2.362 36.985 0.513 23.033 175.238 0.092z" transform="translate(.221 94.226) rotate(-15 417.17 -70.176) translate(3.705 34.976)"/>
                                        <path fill="#FFF" stroke="#979797" stroke-width="2" d="M168.529 15.165L159.195 16.388 149.026 3.535 158.363 2.312zM150.499 17.53L141.175 18.757 130.998 5.899 140.325 4.677zM132.461 19.899L123.138 21.124 112.963 8.27 122.297 7.043zM114.428 22.272L105.109 23.495 94.941 10.635 104.26 9.412zM96.393 24.635L87.076 25.859 76.908 13.006 86.231 11.779z" transform="translate(.221 94.226) rotate(-15 417.17 -70.176) translate(3.705 34.976)"/>
                                        <path fill="#FFF" d="M13.14 28.473c.18 1.382-.799 2.649-2.179 2.833-1.389.178-2.654-.79-2.84-2.174-.18-1.378.795-2.642 2.178-2.823 1.393-.186 2.654.784 2.841 2.164z" transform="translate(.221 94.226) rotate(-15 417.17 -70.176) translate(3.705 34.976)"/>
                                        <path fill="#FFF" stroke="#979797" d="M29.564 26.32c.183 1.38-.799 2.644-2.181 2.826-1.382.183-2.659-.787-2.837-2.174-.18-1.378.799-2.646 2.172-2.826 1.391-.183 2.67.787 2.846 2.174z" transform="translate(.221 94.226) rotate(-15 417.17 -70.176) translate(3.705 34.976)"/>
                                    </g>
                                    <g stroke="#979797">
                                        <path fill="#AEAEAE" stroke-width="2" d="M172.888 0.239L0.386 46.939 3.728 62.39 176.215 15.69z" transform="translate(.221 94.226) rotate(-15 417.17 -70.176) translate(.546 .163)"/>
                                        <path fill="#FFF" stroke-width="2" d="M164.432 2.524L155.226 5.018 150.343 22.696 159.56 20.2zM146.633 7.343L137.429 9.839 132.546 27.514 141.754 25.016zM128.829 12.164L119.619 14.655 114.745 32.331 123.953 29.837zM111.028 16.98L101.82 19.481 96.939 37.156 106.147 34.658zM93.233 21.801L84.012 24.295 79.134 41.973 88.341 39.481z" transform="translate(.221 94.226) rotate(-15 417.17 -70.176) translate(.546 .163)"/>
                                        <path fill="#FFF" d="M13.608 51.537c-.335-1.529-1.714-2.465-3.075-2.097-1.36.372-2.208 1.91-1.882 3.437.335 1.531 1.711 2.47 3.08 2.098 1.364-.37 2.211-1.906 1.877-3.438z" transform="translate(.221 94.226) rotate(-15 417.17 -70.176) translate(.546 .163)"/>
                                    </g>
                                    <g fill="#FFF">
                                        <path d="M164.507 1.841L.916 24.664.695 22.866 164.289.042zM169.742 43.953L6.162 66.779 5.933 64.987 169.526 42.166zM67.085 84.713L9.381 92.755 9.165 90.972 66.86 82.919zM176.04 94.582L12.453 117.403 12.23 115.61 175.817 92.786z" transform="translate(.221 94.226) rotate(-15 417.17 -70.176) translate(13.56 65.126)"/>
                                        <path d="M51.865 60.399L50.185 60.635 44.825 17.624 46.525 17.388zM122.369 50.565L120.676 50.799 115.329 7.786 117.015 7.552z" transform="translate(.221 94.226) rotate(-15 417.17 -70.176) translate(13.56 65.126)"/>
                                    </g>
                                </g>
                                <g fill-rule="nonzero">
                                    <g>
                                        <path fill="#B8B8B8" stroke="#8C8A8A" stroke-width="2" d="M164.933 141.827c-2.722 3.198-7.464 3.637-10.596.964L34.92 40.873l12.497-14.69 119.417 101.916c3.125 2.67 3.45 7.43.724 10.63l-2.625 3.098z" transform="translate(.221 94.226) scale(-1 1) rotate(36 -203.836 -348.167) translate(.604 .623)"/>
                                        <path fill="#333" d="M46.496 25.396L48.343 26.969 35.844 41.664 34.006 40.088z" transform="translate(.221 94.226) scale(-1 1) rotate(36 -203.836 -348.167) translate(.604 .623)"/>
                                        <g fill="#6A6A6A">
                                            <path d="M33.988 40.103C13.202 34.37 4.551 5.87.018.656 32.464-.405 46.245 25.694 46.245 25.694l-12.257 14.41z" transform="translate(.221 94.226) scale(-1 1) rotate(36 -203.836 -348.167) translate(.604 .623)"/>
                                        </g>
                                    </g>
                                </g>
                                <g fill-rule="nonzero">
                                    <path fill="#666" d="M38.487 13.919L1.763.099l22.64 20.694c1.09-.613 2.485-.506 3.438.366 1.197 1.093 1.258 2.97.137 4.195-1.115 1.22-2.992 1.327-4.193.236-.878-.803-1.144-2.02-.784-3.099L.277 1.716l17.24 35.108 27.706 4.292-6.736-27.197z" transform="translate(.221 94.226) scale(-1 1) rotate(22 -367.843 -708.737)"/>
                                    <path fill="#BEBEBE" stroke="#979797" stroke-width="2" d="M187.453 174.564c-3.552 3.875-9.5 4.205-13.29.743L29.358 42.943l16.275-17.775 144.806 132.366c3.787 3.468 3.986 9.417.44 13.29l-3.425 3.74z" transform="translate(.221 94.226) scale(-1 1) rotate(22 -367.843 -708.737)"/>
                                    <path fill="#333" d="M44.498 24.134L46.737 26.183 30.455 43.94 28.216 41.891z" transform="translate(.221 94.226) scale(-1 1) rotate(22 -367.843 -708.737)"/>
                                </g>
                                <path fill="#E9E9E9" stroke="#979797" stroke-width="2" d="M38.055 162.774h246.488c2.162 0 3.933 1.718 3.998 3.879l6.113 200.562c.067 2.208-1.669 4.052-3.877 4.12l-.115.002-259.732.43c-2.209.004-4.003-1.784-4.006-3.993 0-.05 0-.099.002-.148l7.131-200.993c.077-2.153 1.844-3.859 3.998-3.859z" transform="translate(.221 94.226)"/>
                                <g transform="translate(.221 94.226) rotate(90 423.502 424.277)">
                                    <g transform="translate(.384 .827)">
                                        <path fill="#A7A7A7" stroke="#979797" d="M75.449 0c7.883 0 14.274 6.405 14.274 14.305v27.078c.281 0 .51.228.51.51v19.925c0 .283-.229.511-.51.511v103.712c0 7.9-6.391 14.306-14.274 14.306H14.784C6.9 180.347.51 173.942.51 166.04V66.417c-.282 0-.51-.23-.51-.511V54.155c0-.282.228-.51.51-.51v-3.577c-.282 0-.51-.229-.51-.511v-11.75c0-.283.228-.512.51-.512v-6.13c-.282 0-.51-.229-.51-.511v-5.62c0-.282.228-.511.51-.511V14.305C.51 6.405 6.9 0 14.784 0h60.665z"/>
                                        <path fill="#797979" d="M75.449 1.533c3.519 0 6.705 1.43 9.012 3.74 2.306 2.312 3.732 5.505 3.732 9.032v151.736c0 3.527-1.426 6.72-3.732 9.032-2.307 2.311-5.493 3.74-9.012 3.74H14.784c-3.52 0-6.706-1.429-9.012-3.74s-3.733-5.505-3.733-9.032V14.305c0-3.527 1.427-6.72 3.733-9.031 2.306-2.312 5.493-3.741 9.012-3.741h60.665z"/>
                                        <path fill="#F5F5F5" d="M55.057 8.174c-.563 0-1.02-.457-1.02-1.021 0-.565.457-1.022 1.02-1.022s1.02.457 1.02 1.022c0 .564-.457 1.021-1.02 1.021zM40.273 6.642h9.686c.282 0 .51.228.51.51 0 .283-.228.511-.51.511h-9.686c-.281 0-.51-.228-.51-.51 0-.283.229-.511.51-.511z"/>
                                        <use fill="#F5F5F5" stroke="#8C8C8C" xlink:href="#dq8b91zmua"/>
                                    </g>
                                    <rect width="32.991" height="1.696" x="29.145" y="170.432" fill="#797979" rx=".848"/>
                                </g>
                                <g>
                                    <path fill="#BCBCBC" stroke="#868686" stroke-width="2" d="M15.869 27.012c.305.244.583.522.827.828l6.256 7.818c1.397 1.747 2.159 3.917 2.159 6.153v27.276c0 2.93-2.375 5.304-5.304 5.304H5.304C2.374 74.39 0 72.016 0 69.087V41.811c0-2.236.761-4.406 2.159-6.153l6.255-7.818c1.83-2.288 5.167-2.658 7.455-.828zm-2.933 4.02c-2.522 0-4.566 2.043-4.566 4.563 0 2.521 2.044 4.564 4.566 4.564 2.521 0 4.565-2.043 4.565-4.564 0-2.52-2.044-4.564-4.565-4.564z" transform="translate(.221 94.226) translate(76.099 160.487)"/>
                                    <path fill="#838383" d="M12.936 0c.84 0 1.522.681 1.522 1.522v29.666c0 .84-.682 1.522-1.522 1.522s-1.522-.682-1.522-1.522V1.522c0-.84.681-1.522 1.522-1.522z" transform="translate(.221 94.226) translate(76.099 160.487)"/>
                                </g>
                                <g>
                                    <g>
                                        <path fill="#FFF" stroke="#979797" stroke-width="2" d="M16.872 33.416c.306.245.584.523.83.83l6.318 7.9c1.397 1.746 2.158 3.915 2.158 6.151v27.469c0 2.929-2.375 5.303-5.304 5.303H6.245c-2.929 0-5.303-2.374-5.303-5.303V48.297c0-2.236.76-4.405 2.157-6.152l6.319-7.9c1.83-2.287 5.167-2.658 7.454-.829zm-2.93 4.063c-2.534 0-4.588 2.055-4.588 4.589 0 2.534 2.054 4.588 4.588 4.588 2.534 0 4.588-2.054 4.588-4.588 0-2.534-2.054-4.589-4.588-4.589z" transform="translate(.221 94.226) rotate(8 -1095.606 608.005)"/>
                                        <path fill="#838383" d="M13.942.165c.845 0 1.53.685 1.53 1.53v35.942c0 .845-.685 1.53-1.53 1.53s-1.53-.685-1.53-1.53V1.694c0-.844.685-1.529 1.53-1.529z" transform="translate(.221 94.226) rotate(8 -1095.606 608.005)"/>
                                    </g>
                                </g>
                                <g transform="translate(.221 94.226) translate(.539 174.49)">
                                    <ellipse cx="105.313" cy="7.022" fill="#757575" rx="6.313" ry="6.5"/>
                                    <ellipse cx="217.374" cy="7.022" fill="#757575" rx="6.313" ry="6.5"/>
                                    <path fill="#B8B8B8" fill-rule="nonzero" stroke="#757575" d="M217.374 2.63c-1.09 0-2.076.508-2.79 1.33-.717.824-1.16 1.963-1.156 3.221l-.007.954c-.227 16.342-6.137 31.087-15.556 41.743-9.4 10.633-22.295 17.194-36.522 17.194-14.397 0-27.43-6.718-36.86-17.612-9.39-10.849-15.207-25.841-15.227-42.466-.04-1.209-.49-2.293-1.192-3.08-.711-.794-1.681-1.283-2.75-1.283-1.09 0-2.077.507-2.79 1.329-.715.82-1.157 1.955-1.157 3.209 0 19.048 6.714 36.293 17.567 48.776 10.854 12.482 25.848 20.203 42.41 20.203 16.561 0 31.555-7.72 42.409-20.203 10.853-12.483 17.566-29.728 17.566-48.776 0-1.254-.441-2.388-1.155-3.21-.714-.82-1.7-1.328-2.79-1.328z"/>
                                    <g transform="translate(.947 5.875)">
                                        <path fill="#DDD" stroke="#979797" stroke-width="2" d="M20.368 29.755L45.219 29.755 62.293 69.065 3.293 69.065z"/>
                                        <path fill="#979797" d="M26.293 22.41H35.293V30.41H26.293z"/>
                                        <path fill="#DDD" stroke="#979797" stroke-width="2" d="M22.293 0.41H41.293V22.41H22.293z"/>
                                        <path fill="#9A9996" d="M26.293.41H28.293V22.41H26.293zM23.293.41H25.293V22.41H23.293zM34.293.41H36.293V22.41H34.293zM39.293.41H41.293V22.41H39.293z"/>
                                        <path fill="#979797" d="M41.293 3.41H48.293V10.41H41.293z"/>
                                        <path fill="#E8E8E8" fill-rule="nonzero" stroke="#979797" stroke-width="2" d="M64.293 67.41h-64v133c0 2.209 1.791 4 4 4h56c2.21 0 4-1.791 4-4v-133h0z"/>
                                        <path fill="#D1D1D1" fill-rule="nonzero" stroke="#979797" stroke-width="2" d="M64.293 120.41L0.293 120.41 0.293 184.41 64.293 184.41z"/>
                                        <rect width="2" height="125" x="2.293" y="74.41" fill="#979797" rx="1"/>
                                        <rect width="2" height="94" x="8.293" y="105.41" fill="#979797" rx="1"/>
                                        <path fill="#979797" d="M0.293 67.41H64.293V69.41H0.293z"/>
                                    </g>
                                </g>
                            </g>
                            <g>
                                <path fill="#303030" d="M551.295 0c2.232 0 4.041 1.802 4.041 4.024v315.474c0 2.222-1.81 4.024-4.041 4.024H63.913c-2.231 0-4.04-1.802-4.04-4.024V4.024c0-2.222 1.809-4.024 4.04-4.024h487.382zm-18.398 20.917h-450v280h450v-280z" transform="translate(163.294 144.195)"/>
                                <g fill="#FFF" opacity=".8">
                                    <path d="M14 7v7l-7-.966V7h7zM6.125 7v6.125L0 12.145V7h6.125zm0-6.125v5.25H0V1.591L6.125.875zM14 0v6.125H7v-4.99L14 0z" transform="translate(163.294 144.195) translate(536.706 154.805)"/>
                                </g>
                                <path fill="#343434" d="M2.36 367.756h610.49c1.618 0 2.643.874 2.288 1.952l-3.856 11.71c-.355 1.077-1.934 1.95-3.526 1.95H7.452c-1.592 0-3.17-.873-3.525-1.95L.07 369.707c-.355-1.078.67-1.952 2.29-1.952z" transform="translate(163.294 144.195)"/>
                                <g transform="translate(163.294 144.195) translate(82.491 20.347)">
                                    <mask id="76k5oa5bjc" fill="#fff">
                                        <use xlink:href="#yca8zqawnb"/>
                                    </mask>
                                    <use fill="#000" opacity=".1" xlink:href="#yca8zqawnb"/>
                                    <g mask="url(#76k5oa5bjc)">
                                        <g>
                                            <g stroke-width="2">
                                                <g stroke="#5E0600">
                                                    <path fill="#C6B187" d="M361.803 250.972L47.428 299.203c-5.358.821-10.368-2.857-11.193-8.214L.788 60.174c-.822-5.357 2.854-10.365 8.213-11.189L323.378.754c5.356-.821 10.366 2.854 11.189 8.211l35.447 230.818c.826 5.36-2.853 10.363-8.211 11.189zm-251.018 8.553l-39.143 6.006c-4.55.698-7.68 4.953-6.98 9.505.699 4.55 4.96 7.674 9.512 6.972l39.143-6.002c4.552-.698 7.675-4.957 6.977-9.505-.7-4.554-4.957-7.672-9.51-6.976zm94.37-14.478l-10.07 1.547c-4.556.698-7.684 4.952-6.983 9.507.699 4.548 4.957 7.67 9.512 6.971l10.07-1.544c4.55-.698 7.678-4.953 6.977-9.507-.698-4.553-4.957-7.672-9.507-6.974zm123.441-18.94l-39.138 6.006c-4.552.698-7.685 4.953-6.986 9.505.698 4.55 4.961 7.674 9.514 6.972l39.142-6.002c4.555-.7 7.68-4.953 6.982-9.5-.703-4.557-4.961-7.68-9.514-6.981z" transform="translate(-26.05 -6.481) translate(48.846)"/>
                                                    <path fill="#EAEAEA" fill-rule="nonzero" d="M11.264 58.234L323.99 10.256 354.277 207.455 41.547 255.433z" transform="translate(-26.05 -6.481) translate(48.846)"/>
                                                </g>
                                                <g>
                                                    <path fill="#949494" stroke="#202020" d="M326.145 279.996L9.292 252.358c-5.4-.472-9.395-5.23-8.923-10.63L20.677 9.094c.47-5.399 5.23-9.393 10.633-8.923L348.165 27.81c5.4.472 9.395 5.229 8.923 10.628l-20.312 232.634c-.47 5.404-5.23 9.393-10.631 8.924zm-245.893-51.17l-39.451-3.44c-4.588-.398-8.636 2.993-9.035 7.583-.4 4.583 2.997 8.628 7.587 9.028l39.45 3.443c4.586.4 8.631-2.996 9.03-7.584.4-4.59-2.991-8.627-7.581-9.03zm95.117 8.298l-10.152-.884c-4.59-.4-8.636 2.991-9.038 7.583-.4 4.585 2.997 8.623 7.587 9.026l10.147.886c4.59.4 8.636-2.991 9.035-7.581.4-4.59-2.994-8.633-7.58-9.03zm124.41 10.851l-39.445-3.44c-4.59-.4-8.636 2.99-9.04 7.579-.402 4.587 3 8.63 7.587 9.028l39.45 3.442c4.593.398 8.636-2.989 9.036-7.576.4-4.592-2.997-8.632-7.587-9.033z" transform="translate(-26.05 -6.481) translate(48.846) translate(50.323 16.283)"/>
                                                    <path fill="#EAEAEA" fill-rule="nonzero" stroke="#313131" d="M31.312 9.693L346.507 37.184 329.154 235.937 13.962 208.444z" transform="translate(-26.05 -6.481) translate(48.846) translate(50.323 16.283)"/>
                                                </g>
                                                <g stroke="#5E0600">
                                                    <path fill="#E8D19A" d="M327.918 253.28H9.86c-5.422 0-9.818-4.395-9.818-9.813V9.947C.042 4.527 4.436.135 9.86.135h318.058c5.42 0 9.815 4.392 9.815 9.812v233.52c.003 5.418-4.394 9.812-9.815 9.812zM78.507 223.668H38.904c-4.604 0-8.341 3.731-8.341 8.337 0 4.604 3.737 8.337 8.341 8.337h39.603c4.606 0 8.339-3.733 8.339-8.337 0-4.606-3.733-8.337-8.34-8.337zm95.474 0h-10.187c-4.608 0-8.344 3.731-8.344 8.337 0 4.604 3.736 8.337 8.344 8.337h10.187c4.606 0 8.34-3.733 8.34-8.337 0-4.606-3.734-8.337-8.34-8.337zm124.888 0H259.27c-4.604 0-8.341 3.731-8.341 8.337 0 4.604 3.74 8.337 8.341 8.337h39.598c4.61 0 8.341-3.733 8.341-8.337 0-4.606-3.732-8.337-8.341-8.337z" transform="translate(-26.05 -6.481) translate(48.846) translate(41.89 16.283)"/>
                                                    <path fill="#FFF" fill-rule="nonzero" d="M10.694 9.619H327.082V209.128H10.694z" opacity=".936" transform="translate(-26.05 -6.481) translate(48.846) translate(41.89 16.283)"/>
                                                </g>
                                            </g>
                                            <g fill-rule="nonzero">
                                                <path fill="#D6D6D6" stroke="#671309" stroke-linejoin="round" stroke-width="2" d="M59.17 10.142l7.252 10.371S47.375 95.642 48.468 98.816c1.098 3.17 1.027 4.119 1.027 4.119L1.59 89.285s2.32-1.999 4.192-3.57c2.848-2.388 30.49-74.405 30.49-74.405l11.19-4.608 11.708 3.44z" transform="translate(-26.05 -6.481) rotate(-6 2333.94 -751.103)"/>
                                                <path fill="#BCBCBC" stroke="#671309" stroke-linejoin="round" stroke-width="2" d="M49.581 0.013L61.025 3.328 58.868 10.438 47.418 7.126z" transform="translate(-26.05 -6.481) rotate(-6 2333.94 -751.103)"/>
                                                <path fill="#5E0600" d="M47.675 2.915L61.967 2.895 61.964 4.968 47.672 4.988z" transform="translate(-26.05 -6.481) rotate(-6 2333.94 -751.103) rotate(-163.453 54.82 3.941)"/>
                                                <path fill="#BCBCBC" d="M1.713 88.775L49.523 102.985 48.508 106.418 0.699 92.207z" transform="translate(-26.05 -6.481) rotate(-6 2333.94 -751.103)"/>
                                                <g stroke="#671309" stroke-linejoin="round" stroke-width="2">
                                                    <path fill="#67B2FE" d="M19.976.101l30.27 8.918s-1.276 5.064-3.147 12.602l-31.807-9.373C17.745 5.9 19.512 1.302 19.976.1z" transform="translate(-26.05 -6.481) rotate(-6 2333.94 -751.103) translate(16.404 10.943)"/>
                                                    <path fill="#F2F2F2" d="M47.099 21.619c-2.646 10.66-6.477 26.271-9.588 39.666L.296 50.316c5.135-12.704 10.993-27.722 15-38.07L47.1 21.619z" transform="translate(-26.05 -6.481) rotate(-6 2333.94 -751.103) translate(16.404 10.943)"/>
                                                </g>
                                            </g>
                                            <g fill-rule="nonzero">
                                                <path fill="#D6D6D6" stroke="#671309" stroke-linejoin="round" stroke-width="2" d="M79.278 13.657l5.343 12.477s-36.013 75.132-35.557 78.706c.465 3.577.19 4.56.19 4.56L2.18 84.832s2.853-1.614 5.142-2.87c3.488-1.915 47.807-71.935 47.807-71.935l12.668-2.473 11.481 6.103z" transform="translate(-26.05 -6.481) rotate(-8 1593.843 -17.863)"/>
                                                <path fill="#BCBCBC" stroke="#671309" stroke-linejoin="round" stroke-width="2" d="M71.845 0.602L83.203 6.813 79.354 14.235 67.996 8.03z" transform="translate(-26.05 -6.481) rotate(-8 1593.843 -17.863)"/>
                                                <path fill="#5E0600" d="M69.447 2.148L83.056 9.457 82.258 10.97 68.649 3.663z" transform="translate(-26.05 -6.481) rotate(-8 1593.843 -17.863)"/>
                                                <path fill="#BCBCBC" d="M2.344 84.238L49.379 108.977 47.588 112.306 0.555 87.565z" transform="translate(-26.05 -6.481) rotate(-8 1593.843 -17.863)"/>
                                                <g stroke="#671309" stroke-linejoin="round" stroke-width="2">
                                                    <path fill="#FE8967" d="M31.142.313l29.554 15.771s-2.405 5.038-5.953 12.536l-31.05-16.57c3.904-6.132 6.714-10.576 7.45-11.737z" transform="translate(-26.05 -6.481) rotate(-8 1593.843 -17.863) translate(23.531 10.124)"/>
                                                    <path fill="#F2F2F2" d="M54.746 28.618c-5.02 10.612-12.322 26.16-18.408 39.534L.009 48.76c8.044-12.225 17.324-26.717 23.686-36.712l31.05 16.57z" transform="translate(-26.05 -6.481) rotate(-8 1593.843 -17.863) translate(23.531 10.124)"/>
                                                </g>
                                            </g>
                                            <g transform="translate(-26.05 -6.481) translate(0 225.714)">
                                                <ellipse cx="8.281" cy="8.408" fill="#ED375E" fill-rule="nonzero" rx="8.014" ry="8.139"/>
                                            </g>
                                        </g>
                                    </g>
                                </g>
                                <path fill="#575757" d="M60.858 323.522h492.624c.85 0 1.677.272 2.366.78l55.95 41.199c1.809 1.332 2.216 3.907.91 5.752-.76 1.072-1.979 1.707-3.276 1.707H4.908c-2.231 0-4.04-1.844-4.04-4.12 0-1.322.623-2.565 1.675-3.34l55.95-41.199c.688-.507 1.516-.78 2.365-.78z" transform="translate(163.294 144.195)"/>
                                <path fill="#797979" d="M364.374 357.984c4.447 0 8.221.564 8.43 1.26l2.43 8.12c.208.696-3.41 1.26-8.083 1.26H251.536c-4.672 0-8.29-.564-8.082-1.26l2.43-8.12c.208-.696 3.982-1.26 8.43-1.26h110.06zm-283.077-9.207l-5.401 4.774H32.973l6.394-4.774h41.93zm100.118 0l-3.03 4.774h-42.923l4.023-4.774h41.93zm198.525 0l1.672 4.774H187.145l2.827-4.774H379.94zm98.407 0l4.002 4.774h-42.923l-3.01-4.774h41.93zm-347.42 0l-4.224 4.774H83.78l5.218-4.774h41.93zm298.644 0l2.847 4.774h-42.922l-1.855-4.774h41.93zm99.263 0l5.198 4.774h-42.923l-4.205-4.774h41.93zm49.631 0l6.373 4.774h-42.923l-5.38-4.774h41.93zm-8.095-6.684l6.393 4.774h-66.96l-4.793-4.774h65.36zm-120.792 0l3.435 4.774H411.48l-2.442-4.774h40.54zm-192.77 0l-1.287 4.774h-41.533l2.28-4.774h40.54zm96.798 0l1.085 4.774h-41.533l-.091-4.774h40.54zm-192.77 0l-3.638 4.774h-41.532l4.63-4.774h40.54zm335.9 0l4.59 4.774h-41.532l-3.597-4.774h40.54zm-95.144 0l2.26 4.774h-41.533l-1.267-4.774h40.54zm-191.943 0l-2.442 4.774h-41.532l3.434-4.774h40.54zm95.144 0l-.111 4.774h-41.533l1.105-4.774h40.54zm-192.77 0l-4.833 4.774H42.772l6.373-4.774h62.878zm169.756-6.684l-.699 4.775h-40.142l1.692-4.775h39.15zm-91.881 0l-3.03 4.775h-40.142l4.022-4.775h39.15zm185.36 0l1.673 4.775h-40.143l-.679-4.775h39.15zm91.882 0l4.003 4.775H431l-3.01-4.775h39.15zm-324.382 0l-4.225 4.775H98.391l5.218-4.775h39.15zm186.16 0l.497 4.775h-40.143l.497-4.775h39.15zm-93.479 0l-1.875 4.775h-40.142l2.867-4.775h39.15zm186.16 0l2.847 4.775h-40.142l-1.855-4.775h39.15zm92.68 0l5.198 4.775h-40.142l-4.205-4.775h39.15zm46.34 0l6.374 4.775h-40.142l-5.38-4.775h39.149zm-464.2 0l-5.401 4.775H50.875l6.394-4.775h39.15zm455.278-6.683l6.373 4.774h-38.752l-5.38-4.774h37.76zm-44.695 0l5.198 4.774h-38.752l-4.205-4.774h37.76zm-89.39 0l2.848 4.774h-38.752l-1.854-4.774h37.759zm-179.549 0l-1.874 4.774h-38.753l2.868-4.774h37.76zm90.16 0l.497 4.774h-38.752l.496-4.774h37.76zm-179.55 0l-4.224 4.774h-38.753l5.218-4.774h37.76zm312.864 0l4.002 4.774h-38.752l-3.01-4.774h37.76zm-88.619 0l1.672 4.774h-38.752l-.68-4.774h37.76zm-178.779 0l-3.03 4.774h-38.752l4.023-4.774h37.76zm-90.16 0l-5.4 4.774H59.825l6.394-4.774h37.759zm178.779 0l-.7 4.774h-38.751l1.692-4.774h37.759z" transform="translate(163.294 144.195)"/>
                                <path fill="#8C8C8C" fill-rule="nonzero" d="M308.038 6.337c-2.396 0-4.339 1.941-4.339 4.336 0 2.396 1.943 4.337 4.339 4.337 2.396 0 4.339-1.941 4.339-4.337 0-2.395-1.943-4.336-4.339-4.336zm0 1.803c1.4 0 2.534 1.134 2.534 2.533 0 1.4-1.134 2.534-2.534 2.534s-2.534-1.134-2.534-2.534c0-1.399 1.134-2.533 2.534-2.533z" transform="translate(163.294 144.195)"/>
                            </g>
                            <g fill-rule="nonzero">
                                <path fill="#D6D6D6" stroke="#5E0600" stroke-linejoin="round" stroke-width="2" d="M99.305 17.034l6.742 15.827s-45.45 95.309-44.873 99.843c.587 4.537.24 5.784.24 5.784L2.005 107.322s3.6-2.047 6.489-3.641c4.401-2.428 60.334-91.252 60.334-91.252L84.815 9.29l14.49 7.743z" transform="rotate(39 -460.988 490.607)"/>
                                <path fill="#BCBCBC" stroke="#5E0600" stroke-width="2" d="M89.765 0.593L104.011 8.493 99.182 17.935 84.936 10.04z" transform="rotate(39 -460.988 490.607)"/>
                                <path fill="#5E0600" d="M87.031 2.422L104.23 11.761 103.222 13.694 86.023 4.358z" transform="rotate(39 -460.988 490.607)"/>
                                <path fill="#BCBCBC" stroke="#5E0600" stroke-linejoin="round" stroke-width="2" d="M2.934 106.723L62.236 138.057 59.978 142.274 0.678 110.937z" transform="rotate(39 -460.988 490.607)"/>
                                <g stroke="#5E0600" stroke-linejoin="round" stroke-width="2">
                                    <path fill="#F5A623" d="M39.505.394l37.49 19.861s-3.051 6.345-7.551 15.788L30.055 15.175c4.953-7.723 8.518-13.318 9.45-14.781z" transform="rotate(39 -460.988 490.607) translate(28.726 13.06)"/>
                                    <path fill="#F2F2F2" d="M69.447 36.04c-6.368 13.363-15.63 32.945-23.351 49.786L.012 61.406C10.216 46.01 21.987 27.76 30.058 15.171L69.447 36.04z" transform="rotate(39 -460.988 490.607) translate(28.726 13.06)"/>
                                </g>
                            </g>
                            <g transform="translate(759.56 460.89)">
                                <path fill="#585858" d="M6.052 87.618c0 6.006 30.31 10.876 67.697 10.876 37.389 0 67.698-4.87 67.698-10.876l.349-50.467H6.052v50.467z"/>
                                <path fill="#D8D8D8" stroke="#979797" stroke-linejoin="round" stroke-width="2" d="M0 77.15c0 6.062 32.819 10.976 73.303 10.976 40.484 0 73.302-4.914 73.302-10.977l.378-69.373H0v69.373z"/>
                                <ellipse cx="73.5" cy="8.208" fill="#EBEBEB" stroke="#979797" stroke-linejoin="round" stroke-width="2" rx="73.5" ry="8.208"/>
                            </g>
                            <ellipse cx="832.659" cy="44.555" fill="#F5A623" fill-rule="nonzero" opacity=".5" rx="25.76" ry="26.518"/>
                            <ellipse cx="725.365" cy="13.52" fill="#67B2FE" fill-rule="nonzero" opacity=".8" rx="12.501" ry="12.88"/>
                            <ellipse cx="49.268" cy="131.315" fill="#FE8967" fill-rule="nonzero" opacity=".8" rx="12.501" ry="12.88"/>
                            <path fill="#6C6C6C" fill-rule="nonzero" d="M867.146 161.32c-9.205 0-16.668 7.462-16.668 16.668 0 9.205 7.463 16.668 16.668 16.668 9.206 0 16.669-7.463 16.669-16.668 0-9.206-7.463-16.668-16.669-16.668zm0 7.018c5.33 0 9.65 4.32 9.65 9.65s-4.32 9.65-9.65 9.65-9.65-4.32-9.65-9.65 4.32-9.65 9.65-9.65z" opacity=".5"/>
                        </g>
                        <g transform="rotate(41 -122.022 670.077)">
                            <g transform="rotate(5 -34.144 147.285)">
                                <path fill="#979797" fill-rule="nonzero" stroke="#5E0600" stroke-width="1.365" d="M58.125 106.666l8.319 2.765-16.3 13.476c-.591.49-1.316.73-2.039.722-.722-.007-1.443-.261-2.025-.762-.594-.58-.873-1.259-.9-1.92-.029-.702.224-1.392.744-1.919h0l12.201-12.362zM124.422 102.487l-7.318 4.824 20.2 9.194c.715.325 1.495.38 2.214.197.719-.184 1.377-.606 1.848-1.234.457-.77.555-1.492.425-2.12-.145-.696-.569-1.29-1.207-1.654h0l-16.162-9.207zM81.732 105.705c1.053-.181 2.211.003 3.472.588 1.318.611 2.12 1.416 2.475 2.36.364.97.27 2.124-.375 3.462h0l-22.802 26.061c-.558.639-1.315 1.009-2.102 1.093-.787.084-1.605-.118-2.285-.624-.678-.504-1.09-1.233-1.211-2.008-.12-.775.052-1.595.545-2.28h0l19.341-26.91c.873-.985 1.859-1.556 2.942-1.742zM131.063 88.94c.627-.805 1.33-1.336 2.097-1.616.809-.295 1.694-.316 2.66-.041h0l26.028 15.178c.76.465 1.25 1.174 1.444 1.947.196.785.086 1.637-.369 2.373-.463.751-1.175 1.263-1.967 1.489-.793.225-1.668.164-2.457-.23h0l-27.628-13.824c-.61-.95-.872-1.878-.82-2.78.05-.85.38-1.685 1.012-2.497z"/>
                                <path fill="#FABF2A" fill-rule="nonzero" stroke="#5E0600" stroke-width="1.365" d="M93.934 35.872c16.607 0 32.235 2.954 46.884 8.86 5.842 4.771 9.558 10.52 11.333 17.35 1.762 6.782 1.606 14.641-.493 23.577-1.432 6.097-6.061 11.555-12.657 16.14-7.276 5.058-16.94 9.06-27.198 11.726-21.277 5.53-45.029 5.25-55.4-3.013-8.2-6.534-12.903-17.252-15.194-28.252-3.277-15.743-1.592-31.992 1.583-37.247 5.226-8.65 24.727-9.133 48.924-9.14z"/>
                                <path fill="#CD9D24" fill-rule="nonzero" d="M89.329 116.147s41.558-9.786 61.51-40.53c0 9.012-3.532 22.299-22.672 31.564-19.14 9.266-38.838 8.966-38.838 8.966z"/>
                                <path fill="#5E0600" fill-rule="nonzero" d="M67.82 104.331c-.8-1.679 3.611-3.327 10.784-.948 7.174 2.379 1.67 7.856-2.74 7.856-4.412 0-.967-2.606-3.374-3.65-2.407-1.042-3.872-1.58-4.67-3.258z"/>
                                <path fill="#FF8A67" fill-rule="nonzero" d="M74.05 107.523c2.086-1.672 4.132-2.361 6.139-2.07 1.148 1.234.633 2.945-2.258 4.258-2.891 1.313-3.683-.278-3.287-.756.264-.318.066-.796-.594-1.432z"/>
                                <ellipse cx="132.398" cy="67.639" fill="#FF8A67" fill-rule="nonzero" stroke="#5E0600" stroke-width="1.303" rx="8.366" ry="8.405"/>
                                <g fill-rule="nonzero">
                                    <path fill="#FABF2A" stroke="#5E0600" stroke-width="1.303" d="M59.152 2.98c2.037 1.426 7.14 4.664 8.661 13.296 1.95 11.059-.688 16.98-2.565 18.874C62.882 37.54 48.26 44.322 21.38 55.5 6.28 38.939 1.823 20.527 8.008.267c21.044 0 47.74.327 51.144 2.712z" transform="translate(0 58.434)"/>
                                    <path fill="#CD9D24" d="M28.243 50.821c1.267-2.879 1.9-7.532 1.9-13.96 4.781-1.324 17.079-4.766 36.892-10.327-1.261 5.053-2.888 8.058-4.88 9.015-1.993.957-13.296 6.048-33.912 15.272z" transform="translate(0 58.434)"/>
                                    <path fill="#FABF2A" stroke="#5E0600" stroke-width="1.303" d="M19.028 56.457C11.613 57.85 3.29 45.735.784 30.604-1.723 15.472 1.954 1.504 9.37.112c7.416-1.392 15.761 10.32 18.267 25.451 2.507 15.132-1.193 29.502-8.609 30.894z" transform="translate(0 58.434)"/>
                                    <path fill="#5E0600" d="M17.41 48.747C12.28 49.79 6.524 40.705 4.79 29.357c-1.733-11.35.81-21.825 5.939-22.869 5.128-1.044 10.9 7.74 12.633 19.088 1.734 11.349-.825 22.127-5.954 23.17z" transform="translate(0 58.434)"/>
                                </g>
                                <g>
                                    <g transform="translate(33.465)">
                                        <ellipse cx="31.473" cy="28.683" fill="#FFF" fill-rule="nonzero" stroke="#5E0600" stroke-width="1.365" rx="28.471" ry="31.35" transform="rotate(90 31.473 28.683)"/>
                                        <ellipse cx="14.26" cy="17.625" fill="#5E0600" rx="4.895" ry="4.903"/>
                                        <ellipse cx="83.684" cy="39.019" fill="#5E0600" rx="4.005" ry="4.011"/>
                                    </g>
                                </g>
                                <g fill="#FFF" fill-rule="nonzero" stroke="#5E0600" stroke-width="1.365">
                                    <g transform="translate(110.752 21.079)">
                                        <ellipse cx="16.998" cy="15.609" rx="15.428" ry="16.917" transform="rotate(90 16.998 15.61)"/>
                                    </g>
                                </g>
                                <path fill="#5E0600" fill-rule="nonzero" d="M76.728 1.314L126.768 20.227 126.768 21.701 76.391 2.883z"/>
                                <path fill="#5E0600" fill-rule="nonzero" d="M68.169 51.387L129.415 56.394 128.46 57.906 72.241 53.356z" transform="matrix(1 0 0 -1 0 109.292)"/>
                            </g>
                            <ellipse cx="127.723" cy="46.234" fill="#5E0600" rx="4.005" ry="4.011"/>
                        </g>
                        <g transform="rotate(-32 1024.577 -802.88)">
                            <g fill-rule="nonzero" transform="rotate(5 .736 103.12)">
                                <path fill="#FFF" stroke="#5E0600" stroke-width="1.365" d="M34.491 65.85l5.237 3.19-12.312 6.147c-.488.243-1.027.293-1.525.173-.499-.12-.956-.41-1.278-.85-.33-.514-.413-1.034-.325-1.5.094-.502.386-.949.84-1.236h0l9.363-5.924zM78.653 61.803l-5.234 3.188 12.918 6.421c.495.246 1.043.304 1.553.193.51-.112.985-.392 1.332-.822.36-.56.444-1.074.367-1.525-.088-.512-.382-.956-.84-1.237h0l-10.096-6.218zM49.122 68.648c.716.04 1.448.33 2.186.903.788.613 1.188 1.28 1.28 1.962.095.712-.138 1.48-.795 2.286h0L34.097 86.544c-.486.35-1.066.485-1.621.417-.556-.067-1.087-.336-1.476-.792-.389-.457-.558-1.028-.518-1.584.04-.556.291-1.096.743-1.492h0L46.9 69.351c.73-.522 1.474-.746 2.222-.703zM82.933 53.578c.447-.533.942-.874 1.47-1.046.572-.186 1.191-.18 1.86.042h0l16.07 10.12c.528.348.857.863.975 1.414.12.562.02 1.164-.322 1.676-.344.515-.856.857-1.419.996-.562.14-1.175.075-1.72-.221h0l-17.138-9.32c-.42-.683-.584-1.344-.525-1.977.054-.579.296-1.144.75-1.684z"/>
                                <path fill="#FFF" stroke="#5E0600" stroke-width="1.365" d="M59.123 22.281c10.486 0 20.354 1.863 29.604 5.585 3.786 3.072 6.153 6.727 7.283 11.07 1.119 4.296 1.023 9.274-.309 14.934-.913 3.882-3.857 7.367-8.068 10.29-4.602 3.192-10.713 5.72-17.2 7.403-13.486 3.498-28.522 3.282-35.09-1.94-5.204-4.139-8.199-10.924-9.653-17.895-2.08-9.973-.986-20.256 1.028-23.583 3.223-5.324 14.955-5.845 29.774-5.863h1.046z"/>
                                <path fill="#5E0600" d="M42.686 65.541c-.503-1.054 2.274-2.09 6.789-.595 4.515 1.494 1.05 4.935-1.726 4.935s-.608-1.637-2.123-2.293c-1.515-.655-2.437-.992-2.94-2.047z"/>
                                <path fill="#FFF" d="M46.608 67.546c1.313-1.05 2.6-1.483 3.864-1.3.723.775.399 1.85-1.421 2.675-1.82.825-2.319-.175-2.07-.475.167-.2.042-.5-.373-.9z"/>
                                <ellipse cx="83.333" cy="42.491" fill="#FFF" stroke="#5E0600" stroke-width="1.303" rx="5.266" ry="5.28"/>
                                <g>
                                    <path fill="#FFF" stroke="#5E0600" stroke-width="1.303" d="M37.231 1.871c1.282.897 4.494 2.93 5.451 8.354 1.228 6.947-.433 10.666-1.614 11.857-1.49 1.5-10.693 5.761-27.612 12.783C3.953 24.46 1.147 12.895 5.04.168c13.246 0 30.049.205 32.191 1.703z" transform="translate(0 36.709)"/>
                                    <path fill="#FFF" stroke="#5E0600" stroke-width="1.303" d="M11.976 35.467C7.31 36.34 2.071 28.73.493 19.225-1.084 9.72 1.23.945 5.898.071c4.667-.875 9.92 6.482 11.497 15.988 1.578 9.506-.751 18.533-5.419 19.408z" transform="translate(0 36.709)"/>
                                    <path fill="#5E0600" d="M10.957 30.623c-3.227.656-6.85-5.052-7.941-12.181-1.091-7.13.51-13.71 3.737-14.366 3.228-.656 6.861 4.862 7.952 11.991 1.091 7.13-.52 13.9-3.748 14.556z" transform="translate(0 36.709)"/>
                                </g>
                                <g fill="#FFF" stroke="#5E0600" stroke-width="1.365">
                                    <g transform="translate(21.063)">
                                        <ellipse cx="19.809" cy="18.019" rx="17.886" ry="19.732" transform="rotate(90 19.81 18.019)"/>
                                    </g>
                                </g>
                                <g fill="#FFF" stroke="#5E0600" stroke-width="1.365">
                                    <g transform="translate(69.709 13.242)">
                                        <ellipse cx="10.699" cy="9.806" rx="9.692" ry="10.648" transform="rotate(90 10.699 9.806)"/>
                                    </g>
                                </g>
                                <path fill="#5E0600" d="M48.293 0.825L79.789 12.707 79.789 13.633 48.082 1.811z"/>
                                <path fill="#5E0600" d="M42.907 32.281L81.455 35.427 80.854 36.377 45.469 33.518z" transform="matrix(1 0 0 -1 0 68.658)"/>
                            </g>
                            <ellipse cx="36.573" cy="27.16" fill="#5E0600" rx="3.081" ry="3.08"/>
                            <ellipse cx="80.83" cy="31.64" fill="#5E0600" rx="2.521" ry="2.52"/>
                        </g>
                        <g transform="rotate(-6 3617.804 -6695.84)">
                            <g fill-rule="nonzero" transform="rotate(5 1.832 80.671)">
                                <path fill="#FFF" stroke="#5E0600" stroke-width="1.365" d="M26.431 48.853l4.375 2.59-9.743 4.728c-.404.196-.85.236-1.262.137-.412-.099-.79-.336-1.062-.695-.287-.455-.351-.884-.28-1.264.08-.424.328-.795.712-1.031h0l7.26-4.465zM60.276 45.84l-4.372 2.588 10.207 4.931c.41.198.86.244 1.28.152.421-.09.812-.319 1.103-.668.315-.494.38-.918.316-1.285-.074-.435-.325-.806-.712-1.037h0l-7.822-4.682zM37.653 50.962c.575.031 1.164.256 1.758.704.652.492.972 1.032 1.048 1.578.079.578-.107 1.206-.664 1.863h0l-13.585 9.51c-.405.284-.884.392-1.343.337-.46-.056-.9-.275-1.23-.654-.336-.393-.47-.863-.433-1.317.036-.457.247-.9.624-1.221h0L35.85 51.517c.593-.413 1.196-.589 1.803-.555zM63.44 39.79c.365-.421.768-.69 1.2-.827.469-.148.98-.143 1.53.038h0l12.35 7.56c.444.296.711.721.806 1.167.1.467.012.961-.274 1.378-.288.42-.71.698-1.173.812-.463.114-.966.063-1.416-.174h0l-13.185-6.97c-.366-.562-.504-1.108-.454-1.627.045-.466.241-.921.616-1.356z"/>
                                <path fill="#FFF" stroke="#5E0600" stroke-width="1.365" d="M45.31 16.423c8.054 0 15.634 1.391 22.74 4.17 2.973 2.337 4.805 5.091 5.68 8.362.865 3.226.795 6.965-.235 11.217-.709 2.928-2.984 5.563-6.254 7.768-3.539 2.387-8.239 4.278-13.228 5.537-10.39 2.62-21.963 2.435-27.019-1.473-4.02-3.107-6.338-8.198-7.462-13.433-1.607-7.491-.743-15.206.811-17.703 2.556-4.105 12.038-4.441 23.947-4.445z"/>
                                <path fill="#5E0600" d="M32.713 48.822c-.386-.786 1.742-1.557 5.202-.444s.805 3.676-1.322 3.676c-2.128 0-.466-1.22-1.627-1.707-1.161-.488-1.868-.74-2.253-1.525z"/>
                                <path fill="#FFF" d="M35.718 50.315c1.006-.782 1.993-1.105 2.961-.968.554.577.306 1.378-1.089 1.992-1.394.615-1.776-.13-1.585-.354.127-.149.031-.372-.287-.67z"/>
                                <ellipse cx="63.862" cy="31.652" fill="#FFF" stroke="#5E0600" stroke-width="1.303" rx="4.035" ry="3.933"/>
                                <g>
                                    <path fill="#FFF" stroke="#5E0600" stroke-width="1.303" d="M28.532 1.394c.982.668 3.444 2.183 4.178 6.222.94 5.175-.332 7.946-1.237 8.833-1.142 1.117-8.195 4.292-21.16 9.522C3.028 18.22.878 9.606 3.862.125c10.15 0 23.027.153 24.67 1.27z" transform="translate(0 27.344)"/>
                                    <path fill="#FFF" stroke="#5E0600" stroke-width="1.303" d="M9.178 26.42c-3.577.65-7.591-5.018-8.8-12.099C-.831 7.241.943.704 4.52.053c3.577-.652 7.602 4.829 8.811 11.91 1.209 7.08-.576 13.805-4.153 14.456z" transform="translate(0 27.344)"/>
                                    <path fill="#5E0600" d="M8.397 22.81c-2.473.49-5.25-3.762-6.086-9.073-.836-5.31.39-10.212 2.865-10.7 2.473-.49 5.257 3.62 6.093 8.931.836 5.31-.398 10.354-2.872 10.843z" transform="translate(0 27.344)"/>
                                </g>
                                <g fill="#FFF" stroke="#5E0600" stroke-width="1.365">
                                    <g transform="translate(16.142)">
                                        <ellipse cx="15.181" cy="13.422" rx="13.323" ry="15.122" transform="rotate(90 15.181 13.422)"/>
                                    </g>
                                </g>
                                <g fill="#FFF" stroke="#5E0600" stroke-width="1.365">
                                    <g transform="translate(53.422 9.864)">
                                        <ellipse cx="8.199" cy="7.304" rx="7.22" ry="8.16" transform="rotate(90 8.199 7.304)"/>
                                    </g>
                                </g>
                                <path fill="#5E0600" d="M37.01 0.615L61.147 9.465 61.147 10.155 36.848 1.349z"/>
                                <path fill="#5E0600" d="M32.882 24.046L62.424 26.389 61.963 27.097 34.846 24.968z" transform="matrix(1 0 0 -1 0 51.143)"/>
                            </g>
                            <ellipse cx="28.262" cy="20.231" fill="#5E0600" rx="2.361" ry="2.294"/>
                            <ellipse cx="62.178" cy="23.569" fill="#5E0600" rx="1.932" ry="1.877"/>
                        </g>
                        <g>
                            <g transform="rotate(21 52.742 293.621) rotate(5 -22.09 263.029)">
                                <path fill="#979797" fill-rule="nonzero" stroke="#5E0600" stroke-width="1.796" d="M119.977 200.197l14.912 1.396-22.778 29.69c-.792 1.032-1.897 1.704-3.093 1.968s-2.482.119-3.635-.485c-1.182-.721-1.896-1.723-2.19-2.796-.31-1.13-.156-2.346.493-3.397h0l16.291-26.376zM228.403 180.624l-12.362 8.44 36.105 15.632c1.224.53 2.55.6 3.766.267 1.217-.333 2.323-1.068 3.106-2.148.731-1.29.88-2.505.643-3.557-.26-1.154-.984-2.128-2.056-2.712h0l-29.202-15.922zM160.947 188.925c1.718-.719 3.759-.853 6.129-.356 2.453.514 4.125 1.54 5.088 2.987.984 1.48 1.259 3.44.706 5.911h0l-29.432 54.756c-.682 1.268-1.792 2.169-3.063 2.608-1.27.44-2.7.419-4.02-.157-1.309-.57-2.268-1.615-2.76-2.846-.494-1.23-.521-2.648.032-3.965h0L156.66 193c1.092-1.991 2.53-3.34 4.286-4.075zM240.177 155.915c1.06-1.406 2.259-2.349 3.578-2.855 1.373-.526 2.885-.588 4.539-.156h0l47.287 26.402c1.3.769 2.151 1.953 2.5 3.251.355 1.32.192 2.761-.555 4.017-.767 1.29-1.962 2.18-3.304 2.587-1.341.407-2.83.33-4.184-.316h0l-50.08-23.905c-1.048-1.593-1.52-3.161-1.458-4.696.06-1.465.608-2.911 1.677-4.329z"/>
                                <path fill="#FABF2A" fill-rule="nonzero" stroke="#5E0600" stroke-width="1.796" d="M169.081 64.713c29.849 0 57.938 5.294 84.268 15.879 10.372 8.465 17.025 18.726 20.202 30.917 3.161 12.13 2.875 26.185-.89 42.165-2.56 10.874-10.854 20.599-22.649 28.774-13.068 9.058-30.427 16.224-48.85 20.999-38.174 9.893-80.813 9.441-99.43-5.348-14.704-11.682-23.125-30.854-27.232-50.52-5.877-28.149-2.886-57.219 2.81-66.62 9.47-15.632 45.153-16.24 89.105-16.246h0z"/>
                                <path fill="#CD9D24" fill-rule="nonzero" d="M160.792 208.468s74.804-17.563 110.717-72.744c0 16.174-6.356 40.022-40.809 56.653-34.452 16.63-69.908 16.091-69.908 16.091z"/>
                                <path fill="#5E0600" fill-rule="nonzero" d="M122.074 187.26c-1.438-3.012 6.502-5.971 19.414-1.701 12.912 4.27 3.006 14.101-4.934 14.101-7.94 0-1.74-4.678-6.072-6.55-4.332-1.872-6.97-2.836-8.408-5.85z"/>
                                <path fill="#FF8A67" fill-rule="nonzero" d="M133.29 192.99c3.754-3 7.438-4.238 11.05-3.715 2.067 2.214 1.14 5.285-4.064 7.642-5.204 2.358-6.63-.5-5.917-1.357.475-.57.119-1.428-1.07-2.57z"/>
                                <ellipse cx="238.316" cy="121.404" fill="#FF8A67" fill-rule="nonzero" stroke="#5E0600" stroke-width="1.714" rx="15.059" ry="15.086"/>
                                <g fill-rule="nonzero">
                                    <path fill="#FABF2A" stroke="#5E0600" stroke-width="1.714" d="M106.474 5.347c3.665 2.561 12.85 8.372 15.59 23.867 3.509 19.849-1.239 30.476-4.617 33.876-4.26 4.288-30.58 16.463-78.964 36.524C11.304 69.889 3.281 36.844 14.413.479c37.88 0 85.934.587 92.06 4.868z" transform="translate(0 104.882)"/>
                                    <path fill="#CD9D24" d="M50.838 91.217c2.28-5.167 3.42-13.519 3.42-25.056 8.606-2.377 30.741-8.555 66.406-18.535-2.271 9.069-5.2 14.462-8.786 16.18-3.586 1.718-23.933 10.855-61.04 27.411z" transform="translate(0 104.882)"/>
                                    <path fill="#FABF2A" stroke="#5E0600" stroke-width="1.714" d="M34.25 101.333C20.903 103.832 5.922 82.09 1.41 54.93-3.1 27.77 3.518 2.7 16.866.202c13.348-2.499 28.37 18.522 32.881 45.68 4.512 27.16-2.149 52.953-15.497 55.451z" transform="translate(0 104.882)"/>
                                    <path fill="#5E0600" d="M31.336 87.494c-9.23 1.874-19.591-14.433-22.711-34.803-3.12-20.37 1.457-39.172 10.689-41.046 9.23-1.874 19.62 13.892 22.74 34.26 3.12 20.37-1.486 39.715-10.718 41.589z" transform="translate(0 104.882)"/>
                                </g>
                                <g stroke="#5E0600">
                                    <g fill="#FFF" fill-rule="nonzero" stroke-width="1.796" transform="translate(60.236)">
                                        <ellipse cx="56.651" cy="51.483" rx="51.102" ry="56.431" transform="rotate(90 56.65 51.483)"/>
                                    </g>
                                    <path stroke-linecap="round" stroke-width="1.714" d="M47.7 25.746c-.764-6.94 1.25-10.843 6.044-11.71 4.794-.868 7.942 1.906 9.446 8.322" transform="translate(60.236)"/>
                                </g>
                                <g fill="#FFF" fill-rule="nonzero" stroke="#5E0600" stroke-width="1.796">
                                    <g transform="translate(199.354 37.834)">
                                        <ellipse cx="30.596" cy="28.016" rx="27.692" ry="30.451" transform="rotate(90 30.596 28.016)"/>
                                    </g>
                                </g>
                                <path fill="#5E0600" fill-rule="nonzero" d="M138.11 2.358L228.183 36.305 228.183 38.951 137.504 5.175z"/>
                                <path stroke="#5E0600" stroke-linecap="round" stroke-width="1.714" d="M222.528 60.385c1.06-6.901 4.018-10.151 8.873-9.75 4.855.4 7.177 3.894 6.967 10.48"/>
                                <path fill="#5E0600" fill-rule="nonzero" d="M122.705 92.232L232.947 101.22 231.227 103.934 130.034 95.767z" transform="matrix(1 0 0 -1 0 196.166)"/>
                            </g>
                        </g>
                        <path fill="#FABE28" stroke="#5E0600" d="M533.5 595.283c37.832 0 61.5-1.597 61.5-8.5 0-1.794-4.5-9.5-22-9.5-26.31 0 30-9.5-36-9.5-10.638 0-26 0-29.5-4.5-.962-1.237-4.18 5.973-8.5 6.5-16.551 2.016-34 5.876-34 13 0 6 25.835-2.28 42.5 0 11.44 1.565-23 12.5 26 12.5z"/>
                        <g fill-rule="nonzero">
                            <g transform="rotate(-17 1821.39 -1272.333) rotate(-8 126.245 3.789)">
                                <path fill="#FFF" stroke="#5E0600" stroke-width="1.365" d="M89.474 62.718l-5.95 3.615 15.13 7.5c.56.278 1.18.343 1.758.217.578-.125 1.114-.442 1.508-.929.4-.623.495-1.2.408-1.706-.097-.57-.426-1.065-.935-1.378h0l-11.919-7.319zM60.95 77.142c.752-.346 1.657-.444 2.719-.26 1.126.195 1.893.648 2.352 1.288.464.645.64 1.51.442 2.62-2.872 2.739-5.458 6.49-7.997 11.627-2.152 4.355-3.484 8.118-3.982 11.291-.268.784-.658 1.22-1.09 1.466-.52.298-1.116.337-1.675.116-.638-.252-1.152-.702-1.486-1.26-.335-.558-.491-1.223-.413-1.905.421-3.682 1.195-7.002 2.32-9.96 1.296-3.41 3.617-7.806 6.971-13.184.457-.883 1.077-1.489 1.84-1.84zM45.332 73.615c.753-.346 1.657-.444 2.72-.26 1.125.195 1.892.648 2.352 1.288.463.646.639 1.51.441 2.62-2.871 2.739-5.457 6.49-7.996 11.627-2.153 4.356-3.484 8.118-3.982 11.291-.269.784-.659 1.22-1.09 1.466-.52.298-1.117.337-1.675.116-.639-.252-1.152-.702-1.487-1.26-.335-.558-.49-1.223-.413-1.905.421-3.682 1.196-7.002 2.32-9.96 1.296-3.41 3.618-7.806 6.971-13.184.458-.883 1.077-1.489 1.84-1.84zM98.904 60.873c.512-.61 1.079-1.002 1.686-1.2.65-.21 1.353-.202 2.112.046h0l19.062 11.97c.596.396.967.976 1.1 1.596.134.634.02 1.311-.364 1.887-.39.583-.971.97-1.608 1.127-.637.158-1.331.086-1.948-.25h0L98.63 65.035c-.47-.773-.655-1.52-.588-2.236.062-.662.34-1.307.86-1.925z"/>
                                <path fill="#FFF" stroke="#5E0600" stroke-width="1.365" d="M70.174 26.5c12.43 0 24.125 2.2 35.09 6.6 4.438 3.599 7.233 7.904 8.568 13.018 1.323 5.068 1.209 10.94-.367 17.618-1.078 4.57-4.557 8.667-9.526 12.105-5.45 3.771-12.69 6.757-20.373 8.745-15.96 4.128-33.761 3.892-41.536-2.273-6.156-4.882-9.693-12.888-11.413-21.11-2.46-11.763-1.178-23.898 1.204-27.824 3.916-6.452 18.485-6.873 36.645-6.88z"/>
                                <path fill="#5E0600" d="M50.665 77.58c-.597-1.249 2.698-2.475 8.057-.706 5.359 1.77 1.248 5.842-2.048 5.842-3.295 0-.721-1.938-2.52-2.713-1.798-.776-2.892-1.175-3.49-2.423z"/>
                                <path fill="#FFF" d="M55.32 79.953c1.558-1.243 3.087-1.756 4.586-1.539.858.917.473 2.19-1.687 3.166-2.16.977-2.752-.207-2.456-.562.198-.237.05-.592-.444-1.065z"/>
                                <circle cx="98.909" cy="50.296" r="6.25" fill="#FFF" stroke="#5E0600" stroke-width="1.303"/>
                                <g>
                                    <path fill="#FFF" stroke="#5E0600" stroke-width="1.303" d="M44.19 2.215c1.521 1.061 5.333 3.469 6.47 9.888 1.457 8.223-.514 12.626-1.916 14.034-1.767 1.777-12.692 6.82-32.772 15.131C4.692 28.954 1.362 15.264 5.982.198c15.722 0 35.665.244 38.208 2.017z" transform="translate(0 43.45)"/>
                                    <path fill="#FFF" stroke="#5E0600" stroke-width="1.303" d="M14.215 41.981C8.675 43.016 2.458 34.008.585 22.757-1.287 11.505 1.46 1.119 7 .084c5.54-1.035 11.774 7.673 13.647 18.925 1.872 11.251-.892 21.937-6.432 22.972z" transform="translate(0 43.45)"/>
                                    <path fill="#5E0600" d="M13.006 36.247c-3.832.777-8.132-5.98-9.427-14.418-1.294-8.439.606-16.228 4.437-17.005 3.831-.776 8.143 5.755 9.438 14.194s-.617 16.453-4.448 17.23z" transform="translate(0 43.45)"/>
                                </g>
                                <g fill="#FFF" stroke="#5E0600" stroke-width="1.365">
                                    <g transform="translate(25)">
                                        <ellipse cx="23.512" cy="21.329" rx="21.171" ry="23.421" transform="rotate(90 23.512 21.329)"/>
                                    </g>
                                </g>
                                <g fill="#FFF" stroke="#5E0600" stroke-width="1.365">
                                    <g transform="translate(82.738 15.674)">
                                        <ellipse cx="12.698" cy="11.607" rx="11.472" ry="12.638" transform="rotate(90 12.698 11.607)"/>
                                    </g>
                                </g>
                                <path fill="#5E0600" d="M57.32 0.977L94.703 15.041 94.703 16.137 57.069 2.144z"/>
                                <path fill="#5E0600" d="M50.926 38.211L96.68 41.934 95.967 43.058 53.968 39.675z" transform="matrix(1 0 0 -1 0 81.269)"/>
                            </g>
                            <path fill="#5E0600" d="M48.895 26.194c.706-.521 1.69-.402 2.252.253l.074.092 6.649 8.949c.878 1.182-.108 2.814-1.538 2.631l-.1-.015-8.977-1.657c-.903-.167-1.5-1.032-1.332-1.932.16-.864.966-1.446 1.83-1.344l.107.017 4.825.89-4.136-5.566c-.523-.703-.404-1.683.253-2.244l.093-.074zM95.798 26.613c.505-.531 1.347-.553 1.88-.048.504.477.55 1.256.123 1.788l-.075.086-4.407 4.623 5.216.434c.698.058 1.225.645 1.219 1.332l-.005.1c-.058.696-.646 1.221-1.336 1.215l-.1-.005-7.978-.663c-1.078-.09-1.59-1.345-.922-2.157l.068-.077 6.317-6.628z" transform="rotate(-17 1821.39 -1272.333)"/>
                        </g>
                        <path fill="#FABE28" stroke="#5E0600" d="M578 543.783c1.38 0 4-1.62 4-3 0-1.381-1.12-2.5-2.5-2.5s-4.5 1.619-4.5 3c0 1.38 1.62 2.5 3 2.5z"/>
                        <circle cx="550.5" cy="554.783" r="2.5" fill="#FABE28" stroke="#5E0600"/>
                        <path fill="#FABE28" stroke="#5E0600" d="M582 553.283c1.657 0 3-.343 3-2s-1.343-3-3-3-3 1.343-3 3 1.343 2 3 2z"/>
                        <ellipse cx="557" cy="524.783" fill="#FABE28" stroke="#5E0600" rx="3" ry="2.5"/>
                        <circle cx="595.5" cy="561.783" r="2.5" fill="#FABE28" stroke="#5E0600"/>
                        <path fill="#FABE28" stroke="#5E0600" stroke-linecap="round" stroke-linejoin="round" d="M511 574.283c19-9 24.225-27.747 33-29 8.775-1.254-16.132 26.467-4 27.5 12.132 1.032 24.882-28.855 33.5-27.5 8.618 1.354-14.557 23.334-8.5 29s30-15.5 24-6.5c-4 6-5.333 10.666-4 14"/>
                        <path fill="#FABF2A" stroke="#5E0600" d="M464 474.783c1.662 0 4.413 8.229 5.5 6.5 1.08-1.718 11 16.115 11 13.5 0-5.247-13.186-30-16.5-30s-6 2.753-6 8c0 5.246 2.686 2 6 2zM438 454.096c1.108 0 2.942 1.903 3.667 1.503.72-.397 7.333 3.728 7.333 3.123 0-1.214-8.79-6.94-11-6.94-2.21 0-4 .638-4 1.851 0 1.214 1.79.463 4 .463z"/>
                        <circle cx="452" cy="497.283" r="3" fill="#FABE28" stroke="#5E0600"/>
                        <circle cx="455" cy="485.283" r="2" fill="#FABE28" stroke="#5E0600"/>
                        <circle cx="466" cy="457.283" r="2" fill="#FABE28" stroke="#5E0600"/>
                        <g fill-rule="nonzero">
                            <g>
                                <path fill="#FABE28" stroke="#5E0600" stroke-width="2" d="M156.66 145.169c-2.586 3.288-7.09 3.739-10.065.99L33.168 41.385l11.87-15.102 113.427 104.773c2.968 2.746 3.277 7.638.687 10.929l-2.493 3.184z" transform="scale(1 -1) rotate(-89 13.112 -583.497) translate(.682 .972)"/>
                                <path fill="#5E0600" d="M44.164 25.474L45.918 27.092 34.046 42.198 32.3 40.578z" transform="scale(1 -1) rotate(-89 13.112 -583.497) translate(.682 .972)"/>
                                <g stroke="#5E0600">
                                    <path fill="#70572C" stroke-linejoin="round" stroke-width="2" d="M32.283 40.594C12.54 34.699 4.323 5.4.018.04c30.817-1.09 43.907 25.74 43.907 25.74L32.283 40.594z" transform="scale(1 -1) rotate(-89 13.112 -583.497) translate(.682 .972)"/>
                                    <path fill="#FFCD50" d="M18.659 14.945c2.703-3.42-5.214-8.816-4.412-10.382.808-1.567 6.613.04 8.643.45C16.746 1.848 9.16-.284.018.04c1.941 2.417 4.685 9.707 8.914 17.526 0 0-2.557-5.901-.806-7.863 1.758-1.96 7.824 8.663 10.533 5.243z" transform="scale(1 -1) rotate(-89 13.112 -583.497) translate(.682 .972)"/>
                                </g>
                            </g>
                        </g>
                    </g>
                </g>
            </g>
        </g>
    </g>
</svg>
